<svg xmlns="http://www.w3.org/2000/svg" width="168" height="152.115" viewBox="0 0 168 152.115">
  <g id="Groupe_2098" data-name="Groupe 2098" transform="translate(-464.417 -2631.792)">
    <g id="Groupe_2096" data-name="Groupe 2096">
      <g id="Groupe_2087" data-name="Groupe 2087" opacity="0.35">
        <g id="Groupe_2071" data-name="Groupe 2071">
          <path id="Tracé_960" data-name="Tracé 960" d="M558.214,2742.689c-1.463-2-2.839-4.08-4.409-6a12.882,12.882,0,0,0-8.535-4.941,6.438,6.438,0,0,0-6.177,2.759,18.636,18.636,0,0,0-3.272,8.693c-.595,3.723-.923,7.489-1.421,11.228-.335,2.52-.691,5.041-1.183,7.533a7.718,7.718,0,0,1-1.76,3.643,1.874,1.874,0,0,1-2.784.248,11.226,11.226,0,0,1-3.771-6.558,26.165,26.165,0,0,1,.392-11.347c.882-4.051,1.893-8.075,2.817-12.118a55.451,55.451,0,0,1,3.69-10.745,13.273,13.273,0,0,1,7.78-7.443,10.7,10.7,0,0,1,6.846.176,27.981,27.981,0,0,1,9.231,5.173,52.927,52.927,0,0,1,7.134,7.253c2.392,2.867,4.779,5.746,7.313,8.486,2.423,2.619,4.969,5.134,7.578,7.57a41.31,41.31,0,0,0,8.163,5.815,38.29,38.29,0,0,0,10.061,4.116,23.335,23.335,0,0,0,8.525.274c2.583-.364,5.14-.911,7.707-1.381.352-.064.7-.164,1.049-.218a4.321,4.321,0,0,1,.634-.009,1.736,1.736,0,0,1-.165.624,27.448,27.448,0,0,1-2.148,2.642,13.6,13.6,0,0,1-9.675,3.8,30.831,30.831,0,0,1-13.041-2.865,49.138,49.138,0,0,1-11.1-6.675,85.7,85.7,0,0,1-10.867-10.322c-3-3.347-5.91-6.772-8.92-10.108-2.108-2.338-4.266-4.637-6.5-6.853a47.692,47.692,0,0,0-4.016-3.33,7.279,7.279,0,0,0-1.823-1.19,4.186,4.186,0,0,0-3.693.654,15.987,15.987,0,0,0-4.515,4.251,49.716,49.716,0,0,0-8.461,17.7,26.123,26.123,0,0,0-.952,9.944,9.588,9.588,0,0,0,1.332,4.245c.45.68.89.713,1.236-.023a14.567,14.567,0,0,0,1.04-2.949c.93-4.122,1.775-8.262,2.686-12.388a51.076,51.076,0,0,1,2.732-9.1c.817-1.913,1.655-3.872,3.383-5.141a11.107,11.107,0,0,1,3.225-1.542,7.948,7.948,0,0,1,5.64.184,11.926,11.926,0,0,1,3.938,3.065,31.849,31.849,0,0,1,3.887,5.779,33.943,33.943,0,0,0,4.6,6.591,84.9,84.9,0,0,0,9.608,8.738c2.568,1.968,5.145,3.933,7.818,5.753a41.115,41.115,0,0,0,15.667,6.448,44.587,44.587,0,0,0,15.125.163.562.562,0,1,1,.668.9,6.22,6.22,0,0,1-4.505,3.472,28.223,28.223,0,0,1-24.117-4.32q-6.075-3.924-12.181-7.8a32.537,32.537,0,0,1-11.073-11.632c-.165-.292-.353-.571-.531-.856Z" fill="#fff"/>
        </g>
        <g id="Groupe_2072" data-name="Groupe 2072">
          <path id="Tracé_961" data-name="Tracé 961" d="M510.192,2736.947a43.214,43.214,0,0,1-.8-4.658,37.537,37.537,0,0,1,4.038-19.164,26.462,26.462,0,0,1,4.427-6.274,43.93,43.93,0,0,1,9.2-7.552,40.345,40.345,0,0,1,10.442-4.806,23.009,23.009,0,0,1,8.839-.55,40.285,40.285,0,0,1,10.713,2.822,78.987,78.987,0,0,1,7.851,3.579c3.057,1.657,6,3.532,8.928,5.413,4.034,2.592,7.992,5.3,12.014,7.916a23.354,23.354,0,0,0,8.871,3.619,12.994,12.994,0,0,0,9.143-1.72,11.822,11.822,0,0,0,2.261-2.165c.871-.927,1.667-1.925,2.538-2.851.989-1.051,1.586-.938,2.022.437a8.14,8.14,0,0,1-.8,7.21c-2.863,4.363-6.891,6.674-12.181,6.439a19.047,19.047,0,0,1-7.775-2.329,48.6,48.6,0,0,1-9.222-6.4c-2.644-2.232-5.264-4.5-7.979-6.639a64.511,64.511,0,0,0-12.592-7.707c-.965-.454-1.956-.851-2.929-1.289-.464-.209-.741-.042-1,.358-.282.445,0,.666.292.88,2.376,1.743,4.714,3.541,7.146,5.2a60.479,60.479,0,0,1,8.211,6.646c1.982,1.936,3.9,3.931,5.9,5.857a46.444,46.444,0,0,0,10.476,8.163,21.471,21.471,0,0,0,12.787,2.619,11.232,11.232,0,0,0,5.162-1.933c1.462-1.024,2.825-2.188,4.254-3.261a13.282,13.282,0,0,1,2.069-1.351c.942-.461,1.549-.081,1.689.952a3.088,3.088,0,0,1-.829,2.532,28.081,28.081,0,0,1-2.986,2.969,20.183,20.183,0,0,1-10.217,4.708,19.787,19.787,0,0,1-10.4-1.54,26.382,26.382,0,0,1-8.815-5.969c-1.586-1.63-2.947-3.482-4.369-5.266a47.084,47.084,0,0,0-7.366-7.58c-2.844-2.267-5.7-4.532-8.648-6.653a40.162,40.162,0,0,0-14.207-6.816,25.379,25.379,0,0,0-14.509.613,29.613,29.613,0,0,0-9.883,5.939,37.2,37.2,0,0,0-7.078,8.522,31.847,31.847,0,0,0-3.978,8.97,34.625,34.625,0,0,0-.661,6.24c-.111,1.949-.052,3.908-.067,5.863Z" fill="#fff"/>
        </g>
        <g id="Groupe_2073" data-name="Groupe 2073">
          <path id="Tracé_962" data-name="Tracé 962" d="M499.976,2717.369a15.8,15.8,0,0,1-1.387-4.95,17.067,17.067,0,0,1,2.476-10.785c1.832-3.059,3.755-6.074,5.814-8.983a46.8,46.8,0,0,1,6.929-7.531,76.635,76.635,0,0,1,11.212-8.511,34.058,34.058,0,0,1,12.96-5.042,24.931,24.931,0,0,1,10.518.862c2.768.788,5.487,1.749,8.227,2.636a54.161,54.161,0,0,0,11.127,2.653,37.959,37.959,0,0,0,11.057-.61,38.483,38.483,0,0,1,10.561-1.024,9.435,9.435,0,0,1,2.881.752,1.224,1.224,0,0,1,.358,2.211,11.446,11.446,0,0,1-2.73,1.775,28.516,28.516,0,0,1-7.964,1.968,33.542,33.542,0,0,1-12.443-.47,30.752,30.752,0,0,1-9.018-3.678.734.734,0,0,0-1.186.337.633.633,0,0,0,.092.571q2.811,2.478,5.658,4.915a16.994,16.994,0,0,0,6.645,3.353,60.968,60.968,0,0,0,12.439,2.2,14.168,14.168,0,0,0,6.864-1.161,11.277,11.277,0,0,0,3.974-3.341,2.5,2.5,0,0,1,4.084-.054,9.541,9.541,0,0,1,2.083,4.234c.366,1.445-.525,2.582-2.234,3.24a29.307,29.307,0,0,1-9.12,1.6,31.526,31.526,0,0,1-12.72-1.764,82.451,82.451,0,0,1-10.4-4.922c-5.152-2.764-10.185-5.771-15.589-8.034a78.46,78.46,0,0,0-7.671-2.76,18.672,18.672,0,0,0-9.286.062,32.5,32.5,0,0,0-8.026,2.74,24.3,24.3,0,0,0-5.207,3.286c-2.442,2.13-5.029,4.107-7.354,6.356a47.4,47.4,0,0,0-8.948,11.717,42.836,42.836,0,0,0-4.108,12.2C500.3,2714.686,500.173,2715.972,499.976,2717.369Z" fill="#fff"/>
        </g>
        <g id="Groupe_2074" data-name="Groupe 2074">
          <path id="Tracé_963" data-name="Tracé 963" d="M613.462,2741.175a20.624,20.624,0,0,1-5.673,2.551,27.332,27.332,0,0,1-8.167,1.31,26.52,26.52,0,0,1-12.96-3.555,43.118,43.118,0,0,1-9.487-7.487c-2.547-2.6-4.985-5.31-7.516-7.928-2.933-3.034-5.828-6.116-8.9-9a34.507,34.507,0,0,0-11.841-7.544,25.246,25.246,0,0,0-13.973-1.1,20.736,20.736,0,0,0-9.156,4.559,29.074,29.074,0,0,0-8.748,13.466,37.709,37.709,0,0,0-1.845,16.507,62.053,62.053,0,0,0,1.5,6.784c.136.587.331,1.159.494,1.74.03.106.088.257.042.324-.213.314-.459.606-.693.906-.182-.209-.443-.389-.536-.633a46.665,46.665,0,0,1-2.616-15.372,35.833,35.833,0,0,1,3.193-16.076,30.457,30.457,0,0,1,7.12-10.2,19.851,19.851,0,0,1,6.229-3.872,29.09,29.09,0,0,1,22.741.623A37.926,37.926,0,0,1,563.5,2714.6c2.791,2.7,5.5,5.5,8.2,8.3a87.731,87.731,0,0,0,9.485,8.966c4.394,3.379,9.113,6.119,14.6,7.323a18.383,18.383,0,0,0,8.554-.059,16.492,16.492,0,0,0,6.549-3.559c.869-.734,1.674-1.545,2.524-2.3a4.576,4.576,0,0,1,.927-.657,1.38,1.38,0,0,1,1.883.48,4.548,4.548,0,0,1,.3,4.3A8.032,8.032,0,0,1,613.462,2741.175Z" fill="#fff"/>
        </g>
        <g id="Groupe_2075" data-name="Groupe 2075">
          <path id="Tracé_964" data-name="Tracé 964" d="M505.466,2727.45c-.391-.844-.823-1.641-1.139-2.481a14.053,14.053,0,0,1-.171-8.186A40.908,40.908,0,0,1,508.3,2706.3a98.26,98.26,0,0,1,7.048-10.9,29.392,29.392,0,0,1,10.2-8.928,35.613,35.613,0,0,1,16.78-4.5,13.5,13.5,0,0,1,7.092,1.647c2.527,1.512,5.027,3.078,7.476,4.713a85.721,85.721,0,0,0,10.8,6.043c3.344,1.593,6.7,3.167,10.093,4.647a33.775,33.775,0,0,0,15.859,2.833,23.338,23.338,0,0,0,6.714-1.467,9.309,9.309,0,0,1,2.923-.626c1.933-.057,2.8,1.422,1.776,3.049a19.656,19.656,0,0,1-2.532,3.179,6.182,6.182,0,0,1-5.648,1.635,59.114,59.114,0,0,1-7.1-1.6q-5.307-1.521-10.532-3.321a49.588,49.588,0,0,1-9.224-4.577c-4.44-2.66-8.75-5.548-13.5-7.655a29.9,29.9,0,0,0-14.024-2.936,35.4,35.4,0,0,0-8.518,1.689c-1.575.5-3.137,1.036-4.717,1.517a12.309,12.309,0,0,0-6.3,4.325c-1.479,1.9-2.989,3.783-4.549,5.619-.937,1.1-2.071,2.044-2.981,3.167-1.488,1.835-2.825,3.793-4.3,5.641-2.8,3.512-3.515,7.73-4.236,11.973-.328,1.931-.856,3.827-1.3,5.737A1.084,1.084,0,0,1,505.466,2727.45Z" fill="#fff"/>
        </g>
        <g id="Groupe_2076" data-name="Groupe 2076">
          <path id="Tracé_965" data-name="Tracé 965" d="M496.2,2706.742a15.331,15.331,0,0,1-.587-3.568,8.533,8.533,0,0,1,1.148-2.757,53.728,53.728,0,0,1,4.8-8.5c1.617-2.268,3.332-4.476,5.135-6.6,1.847-2.176,3.866-4.205,5.783-6.324a21.154,21.154,0,0,0,1.636-2.114,2.5,2.5,0,0,0,.208-.861,2.55,2.55,0,0,0-.854.083,14.352,14.352,0,0,0-5.374,4.247c-2.071,2.741-4.034,5.563-6.006,8.376a40.6,40.6,0,0,1-7.679,8.533c-.239.192-.452.418-.744.69a4.051,4.051,0,0,1,.224-2.4,18.2,18.2,0,0,1,3.122-5.434c2.138-2.544,4.372-5.008,6.563-7.508,1.942-2.216,3.856-4.457,5.828-6.645,3.8-4.224,7.922-8.093,12.995-10.78a41.516,41.516,0,0,1,9.633-3.609,58.162,58.162,0,0,1,11.176-1.591,99.654,99.654,0,0,1,15.237.358,138.463,138.463,0,0,1,17.409,3.052,21.978,21.978,0,0,1,6.677,2.693,5.506,5.506,0,0,1,2.253,2.757c.265.7-.043,1.217-.8,1.134a37.928,37.928,0,0,1-4.352-.694c-5-1.147-9.993-2.344-14.984-3.538a97.1,97.1,0,0,0-13.562-2.357,50.185,50.185,0,0,0-14.2.55,26.379,26.379,0,0,0-7.15,2.593,44.121,44.121,0,0,0-9.557,7.095,49.7,49.7,0,0,0-6.563,7.663c-2.013,2.811-4.1,5.571-6.11,8.384q-2.451,3.432-4.794,6.94c-1.578,2.353-3.115,4.734-4.637,7.124-.609.957-1.131,1.969-1.693,2.956Z" fill="#fff"/>
        </g>
        <g id="Groupe_2077" data-name="Groupe 2077">
          <path id="Tracé_966" data-name="Tracé 966" d="M547.5,2749a9.505,9.505,0,0,0-3.793,9.287,7.82,7.82,0,0,1-.24,2.821c-.311,1.179-1.2,1.306-1.945.341a11.039,11.039,0,0,1-1.851-3.916c-1.076-3.92-.583-7.787.439-11.63a21.159,21.159,0,0,1,2.509-6.177,11.952,11.952,0,0,1,2.2-2.568,2.418,2.418,0,0,1,3.365.151c1.518,1.54,2.943,3.174,4.346,4.82,2.916,3.419,5.733,6.923,8.7,10.3a49.641,49.641,0,0,0,9.623,8.374,55.5,55.5,0,0,0,10.521,5.821c1.633.645,3.353,1.071,5.036,1.587a19.224,19.224,0,0,1,5.537,2.316c1.008.7,1.061,1.092.157,1.912a4.383,4.383,0,0,1-3.785.886,17.09,17.09,0,0,1-5.365-1.832c-2.3-1.168-4.606-2.361-6.815-3.7-2.556-1.546-5.022-3.243-7.506-4.907-1.613-1.08-3.188-2.217-4.78-3.328a36.87,36.87,0,0,1-7.017-6.574,16.972,16.972,0,0,0-4.625-4.126A3.934,3.934,0,0,0,547.5,2749Z" fill="#fff"/>
        </g>
        <g id="Groupe_2078" data-name="Groupe 2078">
          <path id="Tracé_967" data-name="Tracé 967" d="M550.724,2763.166a19.4,19.4,0,0,1-2.856-5.965,5.666,5.666,0,0,1-.046-2.435,2.767,2.767,0,0,1,3.734-2.034,8.332,8.332,0,0,1,2.847,1.555c1.748,1.52,3.408,3.152,5,4.832,1.953,2.058,3.733,4.282,5.722,6.3a56.9,56.9,0,0,0,4.923,4.33,45.545,45.545,0,0,0,7.712,5.064,17.181,17.181,0,0,0,7.725,2.187,13.651,13.651,0,0,0,6.272-1.673c1.9-.936,3.837-1.8,5.8-2.6a6.935,6.935,0,0,1,4.719-.047c.071.022.126.094.189.143a1.532,1.532,0,0,1-.287.334c-.92.6-1.826,1.221-2.781,1.758a32.164,32.164,0,0,1-8.469,3.455,28.079,28.079,0,0,1-7.375.678,39.582,39.582,0,0,1-9.3-1.405,61.149,61.149,0,0,1-13.4-5.687,31.737,31.737,0,0,1-7.858-5.975C552.182,2765.1,551.48,2764.107,550.724,2763.166Z" fill="#fff"/>
        </g>
        <g id="Groupe_2079" data-name="Groupe 2079">
          <path id="Tracé_968" data-name="Tracé 968" d="M566.2,2644.547c-1.371-.16-2.6-.316-3.842-.447-4.034-.428-8.061-.977-12.107-1.235a29.233,29.233,0,0,0-12.767,2.184c-3.028,1.2-6.092,2.32-9.1,3.561a63.191,63.191,0,0,0-12.769,6.629,53.185,53.185,0,0,0-8.8,7.829q-2.725,3.036-5.279,6.226a19.819,19.819,0,0,0-3.09,5.982,5.748,5.748,0,0,0-.021,3.177,8.584,8.584,0,0,1-1.465,6.741,13.878,13.878,0,0,1-4.691,4.423c-.656.389-.943.291-.892-.469a5.37,5.37,0,0,1,.565-2.359c1.094-1.808,2.343-3.523,3.554-5.259a3.931,3.931,0,0,0,.9-2.6,1.677,1.677,0,0,0-.575-1.172,1.281,1.281,0,0,0-1.2.179,29.583,29.583,0,0,0-2.239,2.529c-.3.358-.51.784-.779,1.166a1.124,1.124,0,0,1-.31.214c-.031-.136-.126-.295-.086-.4a33.025,33.025,0,0,1,1.652-4.287,44.468,44.468,0,0,1,3.418-5.419,61.767,61.767,0,0,1,5.082-6.2c2.4-2.49,4.935-4.865,7.566-7.111a105.624,105.624,0,0,1,16.267-11.594,54.638,54.638,0,0,1,25.066-6.269,52.054,52.054,0,0,1,12.684,1.856A6.129,6.129,0,0,1,566.2,2644.547Z" fill="#fff"/>
        </g>
        <g id="Groupe_2080" data-name="Groupe 2080">
          <path id="Tracé_969" data-name="Tracé 969" d="M526.85,2726.058c-1.773-3.59-1.029-6.277,1.4-9.031a19.478,19.478,0,0,1,6.247-4.671,14.677,14.677,0,0,1,11.9-.233,34.914,34.914,0,0,1,9.957,5.944,75.839,75.839,0,0,1,9.413,9.415c1.528,1.783,3.019,3.6,4.614,5.321a56.242,56.242,0,0,0,7.372,6.508c1.85,1.4,3.669,2.843,5.512,4.255a31.406,31.406,0,0,0,6.942,3.986c1.993.839,4.022,1.593,6.043,2.365a12.142,12.142,0,0,0,9.462-.393c2.354-1.023,4.62-2.246,6.942-3.345.884-.418,1.807-.756,2.729-1.084a.7.7,0,0,1,.64.146.848.848,0,0,1-.078.671,9.07,9.07,0,0,1-3,3.1,18.885,18.885,0,0,1-13.463,3.619,34.473,34.473,0,0,1-14.874-4.893,55.154,55.154,0,0,1-9.26-7.352,129.925,129.925,0,0,1-9.736-10.436c-2.227-2.561-4.515-5.083-6.929-7.467a32.158,32.158,0,0,0-14.51-8.635,13.978,13.978,0,0,0-7.734-.107c-3.986,1.214-6.917,3.544-7.989,7.789-.322,1.273-.779,2.512-1.193,3.76A5.273,5.273,0,0,1,526.85,2726.058Z" fill="#fff"/>
        </g>
        <g id="Groupe_2081" data-name="Groupe 2081">
          <path id="Tracé_970" data-name="Tracé 970" d="M580.048,2783.419c-1.938.162-3.873.411-5.814.472a41.949,41.949,0,0,1-15.274-2.712c-4.419-1.554-8.76-3.327-13.146-4.975a22.1,22.1,0,0,1-6.906-3.881c-2.974-2.594-4.645-5.784-4.3-9.851a71.485,71.485,0,0,1,1.642-11.18c.11-.444.289-.87.436-1.3l.271-.006c.116.581.247,1.16.347,1.744.608,3.585,1.144,7.184,1.845,10.751a27.325,27.325,0,0,0,1.427,4.384,3.317,3.317,0,0,0,2.45,2.064,45.879,45.879,0,0,1,10.44,3.945,57.283,57.283,0,0,1,4.863,3.3,36.635,36.635,0,0,0,9.917,4.775,54.974,54.974,0,0,0,11.482,2.185c.1.01.2.031.306.046Z" fill="#fff"/>
        </g>
        <g id="Groupe_2082" data-name="Groupe 2082">
          <path id="Tracé_971" data-name="Tracé 971" d="M572.994,2652.668a7.005,7.005,0,0,1-3.948-.248,38.055,38.055,0,0,0-11.555-1.49,104.142,104.142,0,0,0-11.008.866c-2.483.259-4.99.281-7.484.448a27.423,27.423,0,0,0-10.007,2.762,67.572,67.572,0,0,0-11.9,7.512,55.854,55.854,0,0,0-8.668,8.545c-1.931,2.282-3.938,4.5-5.932,6.729a4.893,4.893,0,0,1-.948.656,7.5,7.5,0,0,1,.051-1.094,15.724,15.724,0,0,1,3.042-6.493c4.106-5.53,9.433-9.69,15.229-13.274,2.66-1.644,5.416-3.142,8.193-4.585a48.216,48.216,0,0,1,9.994-4.007,55.017,55.017,0,0,1,11.7-1.741,50.552,50.552,0,0,1,10.74.62,32.018,32.018,0,0,1,9.77,3.149C571.2,2651.525,572.085,2652.117,572.994,2652.668Z" fill="#fff"/>
        </g>
        <g id="Groupe_2083" data-name="Groupe 2083">
          <path id="Tracé_972" data-name="Tracé 972" d="M533.222,2633.312c-1.037.163-1.9.312-2.772.431a15.9,15.9,0,0,0-2.651.348,21.257,21.257,0,0,0-3.494,1.49c-3.377,1.789-6.694,3.694-10.085,5.456a35.08,35.08,0,0,0-11.846,9.263c-1.542,1.966-3.07,3.946-4.679,5.857a38.04,38.04,0,0,1-3.083,3.164,4.1,4.1,0,0,1-1.368.66c-.156.059-.374-.048-.563-.079a1.857,1.857,0,0,1,.168-.532c1.078-1.533,2.129-3.09,3.271-4.576q2.306-3,4.732-5.9a41.7,41.7,0,0,1,9.832-8.648c2.883-1.8,5.775-3.6,8.741-5.257a23.847,23.847,0,0,1,8.512-3.107,6.39,6.39,0,0,1,4.793.987C532.849,2632.952,532.949,2633.063,533.222,2633.312Z" fill="#fff"/>
        </g>
        <g id="Groupe_2084" data-name="Groupe 2084">
          <path id="Tracé_973" data-name="Tracé 973" d="M521.905,2757.617c-2.117-4.216-3.841-8.562-4.1-13.332a45.7,45.7,0,0,1,.98-11.691,40.418,40.418,0,0,1,3.926-10.7,4.906,4.906,0,0,1,.342-.484c.42,1.864.809,3.664,1.234,5.455a7.812,7.812,0,0,1,.252,4.226,31.627,31.627,0,0,1-2.074,5.277,18.348,18.348,0,0,0-1.784,11.373q.618,4.811,1.219,9.623A2.131,2.131,0,0,1,521.905,2757.617Z" fill="#fff"/>
        </g>
        <g id="Groupe_2085" data-name="Groupe 2085">
          <path id="Tracé_974" data-name="Tracé 974" d="M490.126,2672.776a20.253,20.253,0,0,1,2.613-6.613,35.279,35.279,0,0,1,7.8-8.94,136,136,0,0,1,16.507-11.724,41.54,41.54,0,0,1,6.393-3.016c-.876.6-1.871,1.348-2.927,2a69.8,69.8,0,0,0-9.543,7.16q-3.646,3.207-7.136,6.593c-1.884,1.836-3.66,3.785-5.447,5.719-2.361,2.557-4.681,5.152-7.033,7.717C490.983,2672.072,490.537,2672.408,490.126,2672.776Z" fill="#fff"/>
        </g>
        <g id="Groupe_2086" data-name="Groupe 2086">
          <path id="Tracé_975" data-name="Tracé 975" d="M548.486,2636.33c-1.231.334-2.373.612-3.494.956-2.712.831-5.532.545-8.291.866a26.857,26.857,0,0,0-4.177.892c-1.627.461-3.215,1.057-4.789,1.584C532.075,2636.308,543.968,2633.777,548.486,2636.33Z" fill="#fff"/>
        </g>
      </g>
      <g id="Groupe_2095" data-name="Groupe 2095">
        <g id="Groupe_2094" data-name="Groupe 2094">
          <g id="Groupe_2088" data-name="Groupe 2088">
            <path id="Tracé_976" data-name="Tracé 976" d="M468.829,2702.846c0,3.339,0,6.976,3.16,9.659a10.624,10.624,0,0,0,13.117,0c3.16-2.683,3.16-6.32,3.16-9.659V2678.46h4.413v25.579c0,3.339-.358,6.558-2.5,9.54-2.385,3.279-6.558,5.366-11.626,5.366s-9.242-2.087-11.627-5.366c-2.146-2.982-2.5-6.2-2.5-9.54V2678.46h4.412Z" fill="#fff"/>
          </g>
          <g id="Groupe_2089" data-name="Groupe 2089">
            <path id="Tracé_977" data-name="Tracé 977" d="M501.86,2693.485h4.293v2.624a7.189,7.189,0,0,1,6.141-3.22,7.409,7.409,0,0,1,6.738,4,8.261,8.261,0,0,1,7.453-4c7.334,0,8.049,6.141,8.049,9.659v15.681h-4.293V2703.2c0-2.8-.358-6.5-4.412-6.5-4.949,0-5.485,4.77-5.485,7.751v13.773h-4.293v-14.667c0-1.729.059-6.857-4.472-6.857-4.889,0-5.426,5.068-5.426,8.049v13.475H501.86Z" fill="#fff"/>
          </g>
          <g id="Groupe_2090" data-name="Groupe 2090">
            <path id="Tracé_978" data-name="Tracé 978" d="M561.663,2693.485h4.293v24.744h-4.293v-3.458a10.439,10.439,0,0,1-8.467,4.174c-6.26,0-12.044-4.412-12.044-13.118,0-8.526,5.724-12.938,12.044-12.938a10.24,10.24,0,0,1,8.467,4.114Zm-16.1,12.342c0,5.307,2.982,9.3,8.109,9.3,5.247,0,8.228-4.353,8.228-9.242,0-6.38-4.412-9.182-8.228-9.182C549.44,2696.705,545.564,2699.806,545.564,2705.827Z" fill="#fff"/>
          </g>
          <g id="Groupe_2091" data-name="Groupe 2091">
            <path id="Tracé_979" data-name="Tracé 979" d="M574.064,2693.485h4.293v2.862a8.73,8.73,0,0,1,7.1-3.458,8.393,8.393,0,0,1,7.095,3.4c1.252,1.848,1.431,3.875,1.431,6.618v15.323h-4.293v-15.2a7.273,7.273,0,0,0-1.133-4.531,4.854,4.854,0,0,0-4.054-1.789,5.409,5.409,0,0,0-4.353,1.908c-1.669,1.968-1.788,4.889-1.788,6.678v12.938h-4.293Z" fill="#fff"/>
          </g>
          <g id="Groupe_2092" data-name="Groupe 2092">
            <path id="Tracé_980" data-name="Tracé 980" d="M604.232,2681.083a3.041,3.041,0,1,1-3.04,3.041A3.054,3.054,0,0,1,604.232,2681.083Zm2.147,12.4v24.744h-4.293v-24.744Z" fill="#fff"/>
          </g>
          <g id="Groupe_2093" data-name="Groupe 2093">
            <path id="Tracé_981" data-name="Tracé 981" d="M624.683,2699.209a3.793,3.793,0,0,0-3.458-2.5,2.734,2.734,0,0,0-2.981,2.8c0,1.789,1.192,2.326,3.994,3.518,3.578,1.491,5.247,2.624,6.2,3.816a5.855,5.855,0,0,1,1.312,3.995c0,5.187-3.756,8.109-8.526,8.109a8.849,8.849,0,0,1-8.646-6.32l3.7-1.551c.477,1.312,1.908,4.055,5.008,4.055a3.841,3.841,0,0,0,4.055-3.935c0-2.326-1.67-3.1-3.995-4.114-2.981-1.312-4.889-2.266-6.022-3.637a5.375,5.375,0,0,1-1.133-3.637c0-4.353,3.041-6.917,7.215-6.917a7.139,7.139,0,0,1,6.8,4.472Z" fill="#fff"/>
          </g>
        </g>
      </g>
    </g>
    <g id="Groupe_2097" data-name="Groupe 2097">
      <path id="Tracé_982" data-name="Tracé 982" d="M478.717,2733.9v-10.186h1.53a6.689,6.689,0,0,1,1.63.158,2.467,2.467,0,0,1,1.036.534,2.788,2.788,0,0,1,.679.97,2.927,2.927,0,0,1,.257,1.188,2.406,2.406,0,0,1-.838,1.854,2.46,2.46,0,0,1,1.28.969,2.872,2.872,0,0,1-.369,3.616,2.784,2.784,0,0,1-1.141.706,6.674,6.674,0,0,1-1.736.191Zm1.537-5.812h.481a1.775,1.775,0,0,0,1.257-.38,1.47,1.47,0,0,0,.4-1.118,1.4,1.4,0,0,0-.409-1.092,1.7,1.7,0,0,0-1.187-.373h-.541Zm0,4.367h.95a2.354,2.354,0,0,0,1.53-.409,1.414,1.414,0,0,0,.515-1.121,1.437,1.437,0,0,0-.495-1.109,2.569,2.569,0,0,0-1.722-.442h-.778Z" fill="#fff"/>
      <path id="Tracé_983" data-name="Tracé 983" d="M492.327,2725.155h-4.084v2.448h3.965v1.445h-3.965v3.4h4.084v1.445h-5.621v-10.186h5.621Z" fill="#fff"/>
      <path id="Tracé_984" data-name="Tracé 984" d="M496.4,2729.5l-3.325-5.786h1.768l2.329,4.07,2.336-4.07h1.768l-3.339,5.786v4.4H496.4Z" fill="#fff"/>
      <path id="Tracé_985" data-name="Tracé 985" d="M501.431,2728.758a4.99,4.99,0,0,1,1.577-3.7,5.192,5.192,0,0,1,3.774-1.544,5.328,5.328,0,0,1,5.3,5.3,5.013,5.013,0,0,1-1.57,3.728,5.383,5.383,0,0,1-7.35.171A5.007,5.007,0,0,1,501.431,2728.758Zm1.551.019a3.681,3.681,0,0,0,1.135,2.778,3.757,3.757,0,0,0,5.311-.02,3.954,3.954,0,0,0,.013-5.462,3.8,3.8,0,0,0-5.364,0A3.673,3.673,0,0,0,502.982,2728.777Z" fill="#fff"/>
      <path id="Tracé_986" data-name="Tracé 986" d="M514.013,2733.9v-10.879l7.428,7.772v-7.079h1.538v10.806l-7.429-7.752v7.132Z" fill="#fff"/>
      <path id="Tracé_987" data-name="Tracé 987" d="M525.42,2733.9v-10.186h2.137a7.8,7.8,0,0,1,2.428.3,4.546,4.546,0,0,1,1.735,1.01,5.267,5.267,0,0,1-.066,7.58,4.789,4.789,0,0,1-1.728,1.009,7.87,7.87,0,0,1-2.4.284Zm1.537-1.445h.693a5.757,5.757,0,0,0,1.722-.218,3.5,3.5,0,0,0,2.375-3.43,3.539,3.539,0,0,0-1.122-2.718,4.25,4.25,0,0,0-2.975-.931h-.693Z" fill="#fff"/>
      <path id="Tracé_988" data-name="Tracé 988" d="M542.21,2725.155v8.742h-1.537v-8.742h-2.342v-1.444h6.215v1.444Z" fill="#fff"/>
      <path id="Tracé_989" data-name="Tracé 989" d="M551.539,2725.155h-4.084v2.448h3.965v1.445h-3.965v3.4h4.084v1.445h-5.621v-10.186h5.621Z" fill="#fff"/>
      <path id="Tracé_990" data-name="Tracé 990" d="M561.085,2724.258v1.821a4.261,4.261,0,0,0-2.757-1.115,3.513,3.513,0,0,0-2.646,1.128,3.806,3.806,0,0,0-1.082,2.745,3.714,3.714,0,0,0,1.082,2.705,3.577,3.577,0,0,0,2.652,1.1,3.252,3.252,0,0,0,1.379-.264,3.96,3.96,0,0,0,.657-.357,7.444,7.444,0,0,0,.715-.541v1.854a5.55,5.55,0,0,1-2.771.746,5.113,5.113,0,0,1-3.727-1.524,5.053,5.053,0,0,1-1.537-3.708,5.234,5.234,0,0,1,1.286-3.47,5.123,5.123,0,0,1,4.1-1.867A5.2,5.2,0,0,1,561.085,2724.258Z" fill="#fff"/>
      <path id="Tracé_991" data-name="Tracé 991" d="M564.846,2727.7h4.394v-3.984h1.537V2733.9H569.24v-4.757h-4.394v4.757h-1.537v-10.186h1.537Z" fill="#fff"/>
      <path id="Tracé_992" data-name="Tracé 992" d="M573.218,2733.9v-10.879l7.429,7.772v-7.079h1.537v10.806l-7.429-7.752v7.132Z" fill="#fff"/>
      <path id="Tracé_993" data-name="Tracé 993" d="M584.209,2728.758a4.99,4.99,0,0,1,1.577-3.7,5.192,5.192,0,0,1,3.774-1.544,5.328,5.328,0,0,1,5.3,5.3,5.01,5.01,0,0,1-1.571,3.728,5.382,5.382,0,0,1-7.349.171A5.007,5.007,0,0,1,584.209,2728.758Zm1.551.019a3.681,3.681,0,0,0,1.135,2.778,3.756,3.756,0,0,0,5.31-.02,3.953,3.953,0,0,0,.014-5.462,3.8,3.8,0,0,0-5.364,0A3.673,3.673,0,0,0,585.76,2728.777Z" fill="#fff"/>
      <path id="Tracé_994" data-name="Tracé 994" d="M598.328,2723.711v8.741h2.995v1.445h-4.532v-10.186Z" fill="#fff"/>
      <path id="Tracé_995" data-name="Tracé 995" d="M601.857,2728.758a4.99,4.99,0,0,1,1.577-3.7,5.192,5.192,0,0,1,3.774-1.544,5.328,5.328,0,0,1,5.3,5.3,5.013,5.013,0,0,1-1.57,3.728,5.383,5.383,0,0,1-7.35.171A5.007,5.007,0,0,1,601.857,2728.758Zm1.551.019a3.681,3.681,0,0,0,1.135,2.778,3.757,3.757,0,0,0,5.311-.02,3.954,3.954,0,0,0,.013-5.462,3.8,3.8,0,0,0-5.364,0A3.673,3.673,0,0,0,603.408,2728.777Z" fill="#fff"/>
      <path id="Tracé_996" data-name="Tracé 996" d="M619.677,2728.593h4.209v.336a6.958,6.958,0,0,1-.27,2.032,4.312,4.312,0,0,1-.891,1.531,4.613,4.613,0,0,1-3.609,1.6,4.96,4.96,0,0,1-3.661-1.543,5.317,5.317,0,0,1,6.03-8.544,6.423,6.423,0,0,1,1.946,1.583l-1.1,1.049a3.719,3.719,0,0,0-3.055-1.669,3.649,3.649,0,0,0-2.711,1.115,3.723,3.723,0,0,0-1.1,2.745,3.825,3.825,0,0,0,3.694,3.826,3.073,3.073,0,0,0,2.039-.765,2.725,2.725,0,0,0,1.009-1.847h-2.54Z" fill="#fff"/>
      <path id="Tracé_997" data-name="Tracé 997" d="M627.541,2729.5l-3.325-5.786h1.768l2.329,4.07,2.336-4.07h1.768l-3.339,5.786v4.4h-1.537Z" fill="#fff"/>
    </g>
  </g>
</svg>
